# xmcd
#
# Track frame offsets:
#	150
#	10215
#	20885
#	32450
#	44712
#	58272
#	67197
#	77005
#	89712
#	102457
#	112440
#	123585
#	132795
#	140807
#	154717
#	165852
#	178402
#	189957
#	199792
#	212412
#
# Disc length: 2973 seconds
#
# Revision: 2
# Processed by: cddbd v1.4PL0 Copyright (c) Steve Scherf et al.
# Submitted via: EasyCDDAExtractor 6.0.0.1
#
DISCID=2e0b9b14
DTITLE=Tonico and Tinoco - Raízes Sertanejas(Dimas som)
DYEAR=2000
DGENRE=Sertanejo
TTITLE0=Cana-Verde-Tonico and Tinoco
TTITLE1=Baile Na Roça-Tonico and Tinoco
TTITLE2=Loira,Loirinha-Tonico and Tinoco
TTITLE3=Bate Co Pé,Bate Ca Mão-Tonico and Tinoco
TTITLE4=Viola De Couro-Tonico and Tinoco
TTITLE5=Boiadeiro Saudoso-Tonico and Tinoco
TTITLE6=Bailão Gaúcho-Tonico and Tinoco
TTITLE7=Porteira Da Estrada-Tonico and Tinoco
TTITLE8=Mineiro Saudoso-Tonico and Tinoco
TTITLE9=Quarenta Anos-Tonico and Tinoco
TTITLE10=No Meu Pé De Serra-Tonico and Tinoco
TTITLE11=Viva A Viola-Tonico and Tinoco
TTITLE12=Coração Sofredor-Tonico and Tinoco
TTITLE13=Moreninha Linda-Tonico and Tinoco
TTITLE14=Cantar É Viver-Tonico and Tinoco
TTITLE15=Mulher Do Carreiro-Tonico and Tinoco
TTITLE16=O Sanfoneiro Só Tocava Isso-Tonico and Tinoco
TTITLE17=Pagode Lascado-Tonico and Tinoco
TTITLE18=Mato Grosso Rico-Tonico and Tinoco
TTITLE19=Adeus Moçada-Tonico and Tinoco
EXTD=YEAR: 2003
EXTT0=
EXTT1=
EXTT2=
EXTT3=
EXTT4=
EXTT5=
EXTT6=
EXTT7=
EXTT8=
EXTT9=
EXTT10=
EXTT11=
EXTT12=
EXTT13=
EXTT14=
EXTT15=
EXTT16=
EXTT17=
EXTT18=
EXTT19=
PLAYORDER=
